<mxfile host="app.diagrams.net" modified="2023-08-23T07:09:13.757Z" agent="Mozilla/5.0 (Windows NT 10.0; Win64; x64) AppleWebKit/537.36 (KHTML, like Gecko) Chrome/116.0.0.0 Safari/537.36" version="21.6.9" etag="1QceXgSaT0k2hLR4njY0" type="github">
  <diagram name="第 1 页" id="ncI3IroYaNKz3da9py7Z">
    <mxGraphModel>
      <root>
        <mxCell id="0" />
        <mxCell id="1" parent="0" />
      </root>
    </mxGraphModel>
  </diagram>
</mxfile>
